<?xml version="1.0" standalone="no"?>
<!DOCTYPE svg PUBLIC "-//W3C//DTD SVG 20010904//EN"
 "http://www.w3.org/TR/2001/REC-SVG-20010904/DTD/svg10.dtd">
<svg version="1.0" xmlns="http://www.w3.org/2000/svg"
 width="1280.000000pt" height="978.000000pt" viewBox="0 0 1280.000000 978.000000"
 preserveAspectRatio="xMidYMid meet">
<metadata>
Created by potrace 1.15, written by Peter Selinger 2001-2017
</metadata>
<g transform="translate(0.000000,978.000000) scale(0.100000,-0.100000)"
fill="#000000" stroke="none">
<path d="M185 9766 c-75 -32 -141 -119 -171 -221 -13 -47 -15 -81 -11 -165 14
-239 53 -586 93 -820 265 -1561 1113 -2834 2494 -3746 597 -394 1329 -727
1994 -908 71 -20 130 -37 133 -39 2 -2 -47 -45 -109 -94 -126 -101 -329 -304
-432 -433 -438 -547 -651 -1216 -608 -1904 26 -410 66 -587 206 -929 l57 -139
-17 -44 c-39 -101 13 -240 108 -290 38 -20 125 -17 173 5 60 28 385 248 510
345 743 581 1279 1328 1509 2105 262 882 243 1822 -55 2721 -118 358 -320 774
-536 1104 -299 457 -641 808 -1098 1126 -289 201 -534 347 -1290 767 -1483
825 -2866 1574 -2906 1573 -8 -1 -27 -7 -44 -14z m180 -508 c203 -109 1014
-553 1680 -920 264 -146 593 -325 730 -398 845 -450 981 -527 1265 -715 463
-306 780 -609 1089 -1039 183 -256 399 -649 504 -916 127 -326 232 -721 267
-1000 19 -151 14 -159 -45 -72 -140 205 -515 637 -919 1056 -208 217 -880 830
-958 873 -21 13 -87 61 -146 107 -808 634 -1802 1194 -2812 1584 -80 30 -253
92 -385 136 -223 76 -241 83 -262 115 -82 121 -184 690 -209 1167 -7 123 -7
127 12 120 10 -4 96 -48 189 -98z m325 -1473 c946 -310 1989 -874 2955 -1599
787 -590 1530 -1302 1985 -1901 78 -103 210 -297 210 -310 0 -14 -52 26 -198
153 -360 314 -643 527 -989 746 -752 475 -1603 848 -2583 1130 -248 72 -693
186 -724 186 -40 0 -139 121 -273 335 -234 373 -607 1137 -638 1307 l-7 38 28
-9 c16 -5 121 -39 234 -76z m950 -1780 c134 -22 316 -67 522 -131 1107 -339
2313 -973 3194 -1680 154 -124 354 -297 354 -307 0 -18 -391 18 -623 58 -1163
197 -2457 864 -3287 1695 -136 136 -330 357 -330 375 0 9 77 5 170 -10z m3480
-2205 c80 -11 241 -31 358 -43 l214 -22 -104 -80 c-644 -496 -1305 -1167
-1777 -1805 -51 -69 -98 -129 -103 -135 -19 -18 -1 233 26 366 93 457 322 933
594 1235 219 242 572 527 632 509 8 -2 80 -14 160 -25z m649 -238 c-35 -37
-116 -128 -180 -202 -715 -835 -1265 -1773 -1580 -2695 -32 -93 -62 -171 -66
-172 -8 -3 -46 85 -114 263 -76 200 -119 415 -119 597 l0 104 91 138 c128 195
263 373 447 589 342 402 852 901 1232 1206 113 90 327 239 344 240 5 0 -20
-30 -55 -68z m151 -106 c0 -109 -62 -476 -111 -656 -150 -553 -366 -978 -717
-1410 -182 -224 -521 -541 -717 -672 -88 -58 -224 -132 -231 -125 -8 8 60 201
131 372 325 781 786 1555 1274 2140 116 139 351 395 362 395 5 0 9 -20 9 -44z"/>
<path d="M12655 9310 c-16 -4 -61 -22 -100 -39 -292 -136 -1427 -618 -2640
-1121 -563 -234 -727 -311 -1032 -486 -796 -456 -1393 -1045 -1766 -1744 -207
-388 -352 -847 -411 -1302 -133 -1023 149 -2178 758 -3103 330 -500 1167
-1361 1451 -1491 64 -29 125 -29 170 0 65 43 103 159 85 258 -6 27 -12 54 -16
59 -3 5 17 67 45 137 215 548 272 1146 161 1688 -124 602 -457 1195 -947 1680
l-132 132 97 12 c660 84 1343 305 1896 614 1324 742 2183 1983 2482 3591 35
183 36 200 41 490 9 527 -20 655 -142 625z m22 -593 c-15 -299 -98 -801 -177
-1066 -24 -83 11 -68 -323 -136 -357 -73 -659 -152 -981 -260 -1025 -341
-2041 -928 -2931 -1693 -300 -258 -742 -692 -994 -977 -69 -77 -140 -157 -158
-178 -19 -22 -36 -37 -39 -35 -2 2 3 62 12 134 162 1404 930 2388 2354 3014
152 67 320 135 545 222 155 59 2221 923 2605 1088 25 11 56 19 69 20 l24 0 -6
-133z m-280 -1361 c-11 -108 -214 -556 -402 -886 -108 -188 -253 -406 -321
-479 -52 -56 -59 -61 -99 -61 -85 0 -445 -45 -675 -85 -831 -143 -1535 -372
-2305 -749 -535 -262 -1102 -614 -1423 -884 -29 -24 -55 -43 -57 -40 -6 6 105
168 186 269 256 324 668 739 1040 1050 952 797 2079 1394 3279 1739 286 82
755 193 774 182 5 -3 6 -28 3 -56z m-917 -1582 c0 -14 -95 -123 -203 -233
-557 -568 -1294 -1005 -2099 -1245 -413 -123 -934 -201 -1423 -213 -245 -5
-414 4 -452 26 -16 9 -12 15 32 58 194 187 700 496 1266 772 984 480 1923 774
2653 830 135 11 226 12 226 5z m-3875 -1830 c148 -4 262 -3 320 5 83 10 92 9
134 -11 162 -78 481 -395 672 -668 231 -330 409 -754 499 -1193 21 -105 62
-398 57 -404 -2 -2 -26 29 -52 69 -94 143 -384 555 -476 678 -125 166 -326
404 -475 565 -157 168 -545 551 -796 784 -109 101 -198 186 -198 189 0 2 19 2
43 -2 23 -3 146 -9 272 -12z m-245 -249 c125 -107 542 -520 734 -728 491 -532
863 -1007 1046 -1337 29 -52 73 -128 98 -168 l45 -73 -6 -142 c-3 -78 -13
-176 -22 -217 -26 -119 -92 -305 -153 -434 l-57 -120 -54 150 c-251 704 -619
1488 -963 2052 -159 260 -470 696 -735 1029 -40 51 -73 96 -73 99 0 8 -3 11
140 -111z m-185 -71 c485 -584 967 -1367 1324 -2149 162 -353 341 -835 311
-835 -4 0 -43 25 -86 56 -733 524 -1382 1587 -1583 2593 -38 191 -71 441 -57
441 2 0 43 -48 91 -106z"/>
</g>
</svg>
