<svg width="383" height="383" viewBox="0 0 383 383" fill="none" xmlns="http://www.w3.org/2000/svg">
<path d="M25.1694 188.221C28.316 187.93 31.1841 190.276 31.4861 193.542C31.7843 196.768 29.4746 199.593 26.2483 199.891C23.0221 200.189 20.1067 197.767 19.8158 194.621C19.5176 191.394 21.983 188.515 25.1694 188.221Z" fill="black"/>
<path d="M43.4223 147.696L44.0504 146.867C46.1656 149.068 47.5723 151.292 46.7088 154.622C45.2128 160.392 38.8813 162.18 32.1054 160.422C24.2067 158.374 19.7556 152.592 21.2114 146.978C22.597 141.634 28.3993 140.453 34.517 142.039L31.043 155.436C31.3427 155.555 32.0397 155.736 32.7366 155.917C38.1961 157.332 44.6895 156.991 45.7438 152.926C46.1655 151.3 45.4801 149.8 43.4223 147.696ZM29.5832 154.851L32.1635 144.9C28.4852 143.946 23.3914 143.989 22.4677 147.551C21.6243 150.804 25.3097 153.164 29.5832 154.851Z" fill="black"/>
<path d="M56.9046 124.933L55.122 129.043L43.7172 129.503L50.9202 138.731L50.2517 140.272L42.0522 129.522L26.9967 130.056L28.7952 125.909L39.9161 125.5L32.9175 116.404L33.5063 115.046L41.5812 125.481L56.9046 124.933Z" fill="black"/>
<path d="M67.8131 119.464L65.5979 122.985L39.1892 106.371L39.6394 103.252L43.1087 104.348C41.9118 101.893 41.3281 99.9668 42.7126 97.7661C45.6946 93.026 52.7535 94.7259 58.7801 98.5173C64.9421 102.394 68.1671 107.258 65.5046 111.49C64.0988 113.725 61.845 114.528 58.9425 113.884L67.8131 119.464ZM45.9074 105.683L56.437 112.307C59.1528 113.023 62.2672 113.707 63.7156 111.405C65.164 109.102 63.5018 106.261 57.7799 102.661C50.5683 98.1242 44.6857 97.2588 43.3225 99.4257C42.2362 101.152 44.3637 104.381 45.9074 105.683Z" fill="black"/>
<path d="M75.9274 96.1247L73.3149 99.3621L48.9411 79.6934L50.5263 75.627L75.9274 96.1247Z" fill="black"/>
<path d="M86.86 85.2215C82.2996 89.6545 77.5101 88.2855 71.7109 82.3196C66.0511 76.4972 63.6727 70.6646 68.9216 65.5624C73.3673 61.2409 78.273 62.3853 84.1559 68.4372C91.2655 75.7511 91.0763 81.123 86.86 85.2215ZM86.7422 83.5509C88.8073 81.5434 88.3423 78.4253 82.9892 72.9183C76.5766 66.3215 71.6175 64.95 69.0935 67.4035C67.0571 69.3831 68.0033 72.4798 73.4121 78.0441C79.518 84.3254 83.9888 86.2274 86.7422 83.5509Z" fill="black"/>
<path d="M102.058 71.4096L98.6924 73.8551L84.3718 54.149L86.9846 50.668L90.4413 55.4247C88.9371 51.1775 89.2233 48.6455 91.003 47.3522C91.7472 46.8114 92.5178 46.647 93.3882 46.7561L93.2988 50.0351C92.9547 50.0379 92.5606 50.176 92.2047 50.4347C90.6515 51.5634 90.9033 54.4955 91.8992 57.4309L102.058 71.4096Z" fill="black"/>
<path d="M124.49 52.7769L125.526 52.6826C125.325 55.7288 124.629 58.267 121.587 59.8726C116.316 62.6545 110.728 59.1809 107.461 52.9902C103.652 45.7736 104.926 38.5884 110.055 35.8812C114.937 33.3047 119.72 36.7961 122.67 42.3854L110.43 48.8453C110.544 49.147 110.88 49.7838 111.216 50.4205C113.848 55.4085 118.476 59.9768 122.19 58.0164C123.676 57.2323 124.322 55.7151 124.49 52.7769ZM109.878 47.3723L118.97 42.5741C117.196 39.2134 113.732 35.4784 110.478 37.196C107.506 38.7643 108.245 43.0782 109.878 47.3723Z" fill="black"/>
<path d="M174.18 42.3898L170.178 43.1877L166.306 23.77C165.68 20.6318 164.489 19.3603 163.116 19.6341C161.194 20.0174 160.423 23.1078 160.249 25.3042L164.059 44.408L160.018 45.2137L156.146 25.7961C155.52 22.6579 154.289 21.3942 152.917 21.668C150.994 22.0513 150.224 25.1416 150.05 27.338L153.86 46.4419L149.78 47.2554L145.016 23.3658L148.845 21.297L149.487 24.5136C149.872 22.3566 151.489 20.4434 153.804 19.9819C155.451 19.6533 157.224 20.1564 158.368 22.0083C159.327 19.8595 161.061 18.5347 163.336 18.081C167.259 17.2987 169.611 19.4808 170.315 23.0113L174.18 42.3898Z" fill="black"/>
<path d="M186.105 43.6951L187.391 39.7898L179.428 16.6978L183.867 16.6129L189.281 34.0326L194.625 16.4072L196.025 16.3804L188.097 43.2569C187.044 46.7577 184.164 48.8531 180.524 48.9227L180.498 47.523C182.857 47.4779 185.349 45.9899 186.105 43.6951Z" fill="black"/>
<path d="M220.52 51.6474L216.474 50.6797L223.731 20.3356L226.83 19.7606L226.906 23.398C228.846 21.4766 230.484 20.3054 233.012 20.9101C238.459 22.2127 239.115 29.4437 237.459 36.3684C235.765 43.4487 232.194 48.0645 227.331 46.9015C224.763 46.2874 223.279 44.4107 222.958 41.4549L220.52 51.6474ZM226.54 26.4773L223.646 38.5761C223.84 41.3779 224.192 44.5469 226.838 45.1796C229.483 45.8123 231.641 43.3259 233.213 36.7513C235.195 28.465 234.126 22.616 231.636 22.0205C229.652 21.546 227.277 24.5973 226.54 26.4773Z" fill="black"/>
<path d="M248.721 53.937C242.855 51.4802 242.236 46.5375 245.45 38.8633C248.587 31.3736 253.019 26.8986 259.771 29.7263C265.49 32.1213 266.361 37.0829 263.101 44.8677C259.161 54.276 254.145 56.2084 248.721 53.937ZM250.212 53.1736C252.868 54.2861 255.554 52.6356 258.521 45.5517C262.075 37.0658 261.392 31.9661 258.145 30.6064C255.526 29.5093 253.048 31.5941 250.05 38.7517C246.666 46.8317 246.67 51.6902 250.212 53.1736Z" fill="black"/>
<path d="M267.386 62.5013L263.817 60.3646L276.329 39.4635L280.556 40.5019L277.536 45.547C280.853 42.4979 283.294 41.7683 285.182 42.8982C285.971 43.3708 286.425 44.0152 286.666 44.8587L283.614 46.0623C283.477 45.7468 283.195 45.4384 282.818 45.2124C281.17 44.2263 278.572 45.6077 276.262 47.6749L267.386 62.5013Z" fill="black"/>
<path d="M288.648 75.4121L288.371 76.3605C286.905 76.493 285.72 75.9331 284.548 75.0294C280.937 72.245 281.029 68.982 283.325 66.0043L294.633 51.3378L293.081 50.141L293.765 49.254C296.331 51.2324 298.831 50.9377 301.55 48.5897L301.836 48.8096L298.611 52.9909L301.272 55.0426L300.588 55.9296L297.928 53.8779L286.277 68.9879C284.934 70.7302 284.285 73.2097 286.312 74.7729C286.977 75.2858 287.567 75.4377 288.648 75.4121Z" fill="black"/>
<path d="M296.122 84.3838L293.138 81.4846L310.059 64.072L308.596 62.6503L309.377 61.8471L310.84 63.2688L311.314 62.7811C313.377 60.6583 317.463 59.6097 320.734 62.7876C321.594 63.6239 322.259 64.6045 322.673 65.8997L321.773 66.2521C321.365 65.4093 320.93 64.6518 320.5 64.2336C319.008 62.7841 316.081 63.8443 314.102 65.881L313.823 66.1679L316.233 68.5095L315.452 69.3127L313.043 66.9711L296.122 84.3838Z" fill="black"/>
<path d="M309.24 99.9482C305.34 94.9242 307.232 90.3162 313.804 85.2145C320.219 80.2355 326.279 78.5187 330.767 84.3011C334.569 89.1987 332.888 93.9473 326.221 99.1225C318.163 105.377 312.845 104.593 309.24 99.9482ZM310.913 100.016C312.679 102.292 315.83 102.175 321.897 97.466C329.164 91.8247 331.077 87.0483 328.919 84.2677C327.177 82.0243 323.995 82.6212 317.865 87.3795C310.945 92.751 308.559 96.9831 310.913 100.016Z" fill="black"/>
<path d="M321.37 116.722L319.233 113.153L346.105 97.0638L349.375 99.9549L321.37 116.722Z" fill="black"/>
<path d="M351.268 112.403C350.682 111.22 351.224 109.701 352.406 109.115C353.625 108.511 355.09 109.035 355.676 110.218C356.298 111.472 355.774 112.848 354.556 113.452C353.373 114.038 351.854 113.585 351.268 112.403ZM326.71 126.807L324.863 123.079L346.689 112.261L349.683 115.42L326.71 126.807Z" fill="black"/>
<path d="M332.42 142.193C330.321 136.19 333.58 132.423 341.434 129.677C349.099 126.996 355.39 127.296 357.806 134.206C359.853 140.059 356.748 144.026 348.781 146.812C339.153 150.178 334.361 147.744 332.42 142.193ZM333.985 142.79C334.935 145.509 337.959 146.401 345.209 143.866C353.893 140.829 357.226 136.909 356.064 133.586C355.127 130.906 351.92 130.459 344.595 133.021C336.326 135.912 332.717 139.166 333.985 142.79Z" fill="black"/>
<path d="M358.798 199.209C355.638 199.179 353.023 196.554 353.054 193.274C353.085 190.034 355.669 187.458 358.909 187.489C362.149 187.52 364.804 190.225 364.773 193.385C364.743 196.625 361.998 199.239 358.798 199.209Z" fill="black"/>
<path d="M334.234 251.217L333.525 251.977C331.644 249.573 330.471 247.217 331.668 243.992C333.742 238.405 340.222 237.269 346.785 239.705C354.435 242.544 358.276 248.749 356.257 254.186C354.336 259.361 348.444 259.947 342.519 257.748L347.335 244.773C347.049 244.624 346.374 244.374 345.699 244.123C340.412 242.16 333.917 241.84 332.456 245.778C331.871 247.353 332.401 248.915 334.234 251.217ZM348.728 245.503L345.151 255.141C348.713 256.463 353.785 256.938 355.066 253.488C356.235 250.338 352.808 247.615 348.728 245.503Z" fill="black"/>
<path d="M318.51 272.493L320.701 268.585L332.094 269.285L325.865 259.374L326.686 257.908L333.752 269.435L348.784 270.433L346.574 274.376L335.469 273.654L341.508 283.413L340.784 284.704L333.81 273.503L318.51 272.493Z" fill="black"/>
<path d="M307.103 276.826L309.664 273.548L334.25 292.757L333.485 295.815L330.145 294.372C331.086 296.935 331.471 298.911 329.871 300.96C326.423 305.373 319.573 302.965 313.963 298.581C308.226 294.099 305.512 288.933 308.59 284.993C310.215 282.912 312.539 282.342 315.361 283.278L307.103 276.826ZM327.496 292.76L317.694 285.101C315.065 284.112 312.036 283.116 310.361 285.26C308.686 287.403 310.051 290.399 315.378 294.561C322.092 299.806 327.856 301.264 329.432 299.247C330.688 297.64 328.9 294.212 327.496 292.76Z" fill="black"/>
<path d="M296.661 299.221L299.589 296.265L321.839 318.307L319.85 322.192L296.661 299.221Z" fill="black"/>
<path d="M284.678 308.958C289.665 305.01 294.29 306.859 299.454 313.383C304.493 319.75 306.267 325.793 300.527 330.336C295.666 334.184 290.902 332.548 285.664 325.93C279.333 317.932 280.067 312.607 284.678 308.958ZM284.625 310.632C282.367 312.419 282.513 315.568 287.279 321.59C292.989 328.804 297.783 330.672 300.543 328.487C302.77 326.725 302.143 323.548 297.327 317.463C291.891 310.594 287.636 308.248 284.625 310.632Z" fill="black"/>
<path d="M268.156 321.155L271.752 319.064L283.998 340.122L281.046 343.32L278.09 338.237C279.155 342.615 278.613 345.105 276.711 346.211C275.916 346.673 275.133 346.758 274.278 346.561L274.7 343.308C275.042 343.341 275.448 343.243 275.829 343.022C277.488 342.057 277.536 339.114 276.843 336.093L268.156 321.155Z" fill="black"/>
<path d="M243.948 337.414L242.908 337.402C243.417 334.392 244.367 331.938 247.557 330.65C253.083 328.417 258.289 332.44 260.911 338.931C263.967 346.497 261.97 353.515 256.593 355.688C251.474 357.755 247.071 353.796 244.704 347.936L257.536 342.753C257.454 342.441 257.184 341.773 256.914 341.106C254.802 335.876 250.662 330.862 246.768 332.435C245.21 333.064 244.413 334.508 243.948 337.414ZM257.935 344.274L248.404 348.124C249.827 351.648 252.894 355.715 256.306 354.337C259.421 353.078 259.124 348.712 257.935 344.274Z" fill="black"/>
<path d="M193.461 342.702L197.522 342.315L199.403 362.025C199.707 365.211 200.763 366.597 202.157 366.464C204.108 366.277 205.188 363.281 205.584 361.114L203.734 341.722L207.835 341.331L209.716 361.041C210.02 364.227 211.116 365.609 212.51 365.476C214.461 365.29 215.541 362.293 215.937 360.126L214.087 340.734L218.228 340.339L220.542 364.589L216.522 366.258L216.211 362.993C215.608 365.1 213.805 366.839 211.456 367.063C209.783 367.223 208.071 366.542 207.121 364.584C205.949 366.624 204.089 367.766 201.78 367.986C197.798 368.366 195.679 365.957 195.337 362.373L193.461 342.702Z" fill="black"/>
<path d="M181.729 340.193L180.053 343.947L185.631 367.729L181.206 367.362L177.588 349.483L170.482 366.475L169.087 366.359L179.703 340.426C181.106 337.051 184.184 335.259 187.812 335.559L187.696 336.954C185.344 336.759 182.714 337.987 181.729 340.193Z" fill="black"/>
<path d="M148.3 328.787L152.226 330.161L141.926 359.611L138.784 359.869L139.078 356.242C136.953 357.957 135.205 358.956 132.751 358.097C127.465 356.249 127.547 348.988 129.897 342.268C132.301 335.396 136.323 331.166 141.042 332.817C143.534 333.689 144.82 335.707 144.84 338.68L148.3 328.787ZM139.755 353.216L143.862 341.474C143.954 338.667 143.925 335.478 141.358 334.58C138.79 333.682 136.392 335.937 134.16 342.318C131.347 350.36 131.816 356.287 134.233 357.132C136.158 357.806 138.831 355.012 139.755 353.216Z" fill="black"/>
<path d="M120.477 323.646C126.063 326.686 126.177 331.666 122.2 338.974C118.319 346.107 113.455 350.108 107.025 346.61C101.579 343.647 101.217 338.622 105.251 331.209C110.126 322.249 115.312 320.836 120.477 323.646ZM118.916 324.254C116.386 322.878 113.547 324.247 109.876 330.993C105.479 339.074 105.641 344.217 108.733 345.899C111.227 347.257 113.904 345.434 117.613 338.618C121.799 330.923 122.289 326.09 118.916 324.254Z" fill="black"/>
<path d="M102.777 313.231L106.111 315.719L91.5418 335.242L87.4423 333.78L90.9591 329.067C87.3495 331.764 84.8466 332.242 83.0835 330.926C82.3462 330.376 81.9605 329.689 81.8065 328.825L84.9644 327.937C85.0692 328.265 85.318 328.601 85.6706 328.864C87.2093 330.012 89.9347 328.902 92.4424 327.08L102.777 313.231Z" fill="black"/>
<path d="M82.9369 298.228L83.3084 297.313C84.7802 297.33 85.9018 298.007 86.9761 299.025C90.2859 302.162 89.8636 305.399 87.2772 308.128L74.538 321.57L75.9606 322.919L75.1902 323.732C72.8385 321.503 70.3214 321.542 67.3775 323.602L67.1162 323.354L70.7481 319.522L68.3093 317.211L69.0797 316.398L71.5185 318.709L84.6429 304.86C86.1562 303.263 87.0537 300.862 85.1956 299.101C84.5859 298.523 84.0143 298.312 82.9369 298.228Z" fill="black"/>
<path d="M76.4123 288.544L79.0859 291.731L60.4845 307.336L61.7956 308.899L60.9375 309.619L59.6264 308.056L59.1054 308.493C56.8377 310.395 52.6657 311.023 49.7351 307.53C48.9638 306.61 48.4022 305.567 48.1213 304.237L49.0525 303.978C49.3729 304.858 49.7289 305.655 50.1145 306.115C51.4513 307.709 54.4706 306.951 56.6463 305.126L56.9528 304.869L54.7933 302.294L55.6514 301.575L57.8109 304.149L76.4123 288.544Z" fill="black"/>
<path d="M64.9422 271.728C68.3118 277.122 65.9619 281.514 58.9055 285.922C52.0188 290.224 45.8155 291.317 41.9373 285.109C38.6525 279.85 40.8074 275.297 47.9655 270.826C56.6163 265.421 61.8269 266.741 64.9422 271.728ZM63.2844 271.49C61.7586 269.048 58.6125 268.844 52.099 272.912C44.2963 277.787 41.9082 282.344 43.7731 285.33C45.2778 287.738 48.5045 287.468 55.0859 283.356C62.5154 278.715 65.3189 274.747 63.2844 271.49Z" fill="black"/>
<path d="M54.5776 253.809L56.3411 257.577L27.9748 270.855L25.0157 267.647L54.5776 253.809Z" fill="black"/>
<path d="M24.396 255.071C24.8591 256.307 24.1658 257.763 22.9296 258.226C21.6561 258.703 20.2518 258.033 19.7887 256.797C19.2976 255.486 19.9581 254.171 21.2317 253.693C22.4678 253.23 23.9329 253.835 24.396 255.071ZM50.2894 243.235L51.7488 247.13L28.937 255.676L26.279 252.23L50.2894 243.235Z" fill="black"/>
<path d="M46.1712 227.348C47.6501 233.533 44.0252 236.95 35.9333 238.885C28.0359 240.773 21.8072 239.836 20.105 232.716C18.6633 226.686 22.1546 223.055 30.3632 221.092C40.2836 218.72 44.8039 221.629 46.1712 227.348ZM44.6752 226.595C44.0055 223.794 41.0878 222.6 33.6183 224.386C24.6705 226.525 20.9568 230.086 21.7753 233.51C22.4357 236.272 25.5809 237.041 33.1282 235.237C41.648 233.2 45.5681 230.33 44.6752 226.595Z" fill="black"/>
</svg>
