<svg width="965" height="130" viewBox="0 0 965 130" fill="none" xmlns="http://www.w3.org/2000/svg">
<path d="M48.6228 122.92L8.06281 19.48C4.38281 9.95999 0.382813 8.28 0.382813 8.28H16.7828C16.7828 8.28 14.1428 9.95999 17.8228 19.48L52.5428 108.2L87.2628 19.48C91.0228 9.95999 88.3028 8.28 88.3028 8.28H96.7828C96.7828 8.28 92.8628 9.95999 89.1028 19.48L48.6228 122.92ZM173.278 112.36L173.358 65.64C178.398 61.88 180.398 60.52 183.038 58.04V113.56C183.038 121.32 178.638 123 169.998 123C169.998 123 173.278 121.88 173.278 112.36ZM226.398 123C226.398 123 229.758 121.88 229.758 112.36C229.758 112.36 229.838 112.36 229.838 60.92C229.838 47.8 226.318 39.56 215.518 39.56C195.038 39.56 192.478 53.24 167.118 66.28C165.278 67.24 163.438 68.04 161.598 68.76C161.598 80.76 161.598 112.44 161.598 112.44C161.598 121.96 164.878 123 164.878 123C157.998 123 151.838 122.04 151.838 112.36V101.64C147.118 112.28 137.758 123 119.758 123C93.5184 123 86.3984 107 86.3984 98.2C86.3984 97.88 86.4784 97.56 86.4784 97.24C86.4784 70.84 120.398 78.2 151.838 69.72V67.56C151.678 54.92 149.038 39.96 130.558 39.96C116.638 39.96 105.838 49.32 102.558 63.32L93.9984 57.72C101.278 42.44 115.998 37.4 130.638 37.24C155.598 37.08 161.598 52.12 161.598 64.2C161.598 64.28 161.598 65.08 161.598 66.52C163.518 65.72 165.358 64.84 167.278 63.88C169.438 62.76 171.438 61.64 173.358 60.44V53.64C173.358 44.04 169.998 42.44 169.998 42.44L183.038 37.4V53.64C194.238 45 200.478 37.48 215.278 37.48C229.118 37.48 239.598 41.56 239.598 61.72L239.518 112.44C239.518 121.96 242.798 123 242.798 123H226.398ZM121.838 118.44C141.358 118.44 151.598 105.08 151.838 86.76V71.8C124.878 78.44 96.5584 72.84 96.5584 95.16C96.5584 110.6 106.398 118.44 121.838 118.44ZM258.51 78.28C259.07 129.72 321.39 124.28 326.91 98.36C325.55 111.08 311.31 123.08 293.39 123.08C265.95 123.08 248.43 102.28 248.43 78.68C248.43 55.08 267.63 37.4 290.35 37.4C312.99 37.4 329.47 48.44 329.47 77.24H258.51V78.28ZM290.35 41.08C274.11 41.08 259.95 55.16 258.59 74.76H320.35C320.35 55.64 311.23 41.08 290.35 41.08ZM399.63 100.36C399.63 76.6 339.47 91.64 339.47 59C339.47 55.64 340.83 37.48 372.99 37.48C393.15 37.48 404.51 44.6 404.51 44.6L401.39 57.72C401.39 57.72 400.99 39.72 371.79 39.72C360.75 39.72 349.63 46.28 349.63 58.92C349.63 82.76 412.35 69 412.35 98.68C412.35 112.76 401.23 123 373.23 123C345.31 123 337.55 112.04 335.07 108.76L341.87 100.52C343.23 104.28 349.47 120.92 373.39 120.92C395.63 120.92 399.63 106.84 399.63 100.36ZM482.521 100.36C482.521 76.6 422.361 91.64 422.361 59C422.361 55.64 423.721 37.48 455.881 37.48C476.041 37.48 487.401 44.6 487.401 44.6L484.281 57.72C484.281 57.72 483.881 39.72 454.681 39.72C443.641 39.72 432.521 46.28 432.521 58.92C432.521 82.76 495.241 69 495.241 98.68C495.241 112.76 484.121 123 456.121 123C428.201 123 420.441 112.04 417.961 108.76L424.761 100.52C426.121 104.28 432.361 120.92 456.281 120.92C478.521 120.92 482.521 106.84 482.521 100.36ZM566.292 87.4V65.72C566.292 52.76 564.052 39.96 545.012 39.96C531.092 39.96 520.292 49.32 517.012 63.4L508.452 57.72C515.732 42.44 530.452 37.32 545.092 37.32C571.972 37.32 576.132 51 576.052 65.64V112.44C576.052 121.96 579.332 123 579.332 123C572.452 123 566.292 122.04 566.292 112.36V101.64C561.572 112.36 552.212 123 534.212 123C507.972 123 500.852 107 500.852 98.28C500.852 59.72 559.012 70.68 565.812 61.32C562.452 70.52 511.012 64.52 511.012 95.24C511.012 110.68 520.852 118.44 536.292 118.44C555.572 118.44 566.292 103.48 566.292 87.4ZM719.197 105.24C709.917 117.48 695.517 122.92 676.957 122.92C649.117 122.92 626.477 102.04 626.477 65.72C626.477 29.32 648.797 8.28 680.317 8.28C708.157 8.28 712.557 21.4 721.517 19L716.077 33.72C705.677 16.76 697.437 11.4 676.957 11.4C660.077 11.4 636.637 28.6 636.637 65.48C636.637 102.44 654.717 119.24 676.957 119.24C696.557 119.24 705.357 113.56 712.717 100.92L719.197 105.24ZM740.142 0.599993L740.222 113.56C740.222 121.32 735.742 123 727.102 123C727.102 123 730.462 121.88 730.462 112.36V16.84C730.462 7.24 727.102 5.63999 727.102 5.63999L740.142 0.599993ZM783.502 123C783.502 123 786.782 121.88 786.782 112.36C786.782 112.36 786.782 112.36 786.782 61.48C786.782 33.64 748.702 33.4 740.782 61.32C745.982 25.56 796.542 33.56 796.542 59.64V112.44C796.542 121.96 799.902 123 799.902 123H783.502ZM815.619 78.28C816.179 129.72 878.499 124.28 884.019 98.36C882.659 111.08 868.419 123.08 850.499 123.08C823.059 123.08 805.539 102.28 805.539 78.68C805.539 55.08 824.739 37.4 847.459 37.4C870.099 37.4 886.579 48.44 886.579 77.24H815.619V78.28ZM847.459 41.08C831.219 41.08 817.059 55.16 815.699 74.76H877.459C877.459 55.64 868.339 41.08 847.459 41.08ZM892.18 42.44L905.3 37.4V113.56C905.3 121.32 900.82 123 892.18 123C892.18 123 895.54 121.88 895.54 112.36V53.64C895.54 44.04 892.18 42.44 892.18 42.44ZM948.58 123C948.58 123 951.86 121.88 951.86 112.36C951.86 112.36 951.86 112.36 951.86 61.48C951.86 33.64 913.78 33.4 905.86 61.32C911.06 25.56 961.62 33.56 961.62 59.64V112.44C961.62 121.96 964.98 123 964.98 123H948.58Z" fill="black"/>
</svg>
